# xmcd
#
# Track frame offsets:
#	150
#	14429
#	29035
#	42412
#	56024
#	70634
#	84359
#	99727
#	113677
#	127245
#	142110
#	156423
#	171263
#	185988
#	200325
#	214740
#	227971
#	241104
#	255126
#	269148
#	281710
#	294239
#	307322
#	320030
#	333986
#
# Disc length: 4635 seconds
#
# Revision: 1
# Processed by: cddbd v1.5.1PL0 Copyright (c) Steve Scherf et al.
# Submitted via: EasyCDDAExtractor 7.5.2.1
#
DISCID=8c121919
DTITLE=Various Artist - Masters Of The Memphis Blues (1928-34) - Disc C (Fran
DTITLE=k Stokes and Allen Shaw)
DYEAR=2004
DGENRE=Blues
TTITLE0=Frank Stokes - Downtown Blues (Take 1)
TTITLE1=Frank Stokes - Downtown Blues (Take 2)
TTITLE2=Frank Stokes - Bedtime Blues
TTITLE3=Frank Stokes - What's The Matter Blues
TTITLE4=Frank Stokes - Mistreatin' Blues
TTITLE5=Frank Stokes - It Won't Be Long (Take 1)
TTITLE6=Frank Stokes - It Won't Be Long (Take 2)
TTITLE7=Frank Stokes - Nehi Mamma Blues
TTITLE8=Frank Stokes - I Got Mine
TTITLE9=Frank Stokes - Stomp That Thing
TTITLE10=Frank Stokes - 'Tain't Nobody's Business If I Do, Part 1
TTITLE11=Frank Stokes - 'Tain't Nobody's Business If I Do, Part 2 (Take 1)
TTITLE12=Frank Stokes - 'Tain't Nobody's Business If I Do, Part 2 (Take 2)
TTITLE13=Frank Stokes - Take Me Back
TTITLE14=Frank Stokes - How Long
TTITLE15=Frank Stokes - South Memphis Blues
TTITLE16=Frank Stokes - Bunker Hill Blues
TTITLE17=Frank Stokes - Right Now Blues
TTITLE18=Frank Stokes - Shiney Town Blues
TTITLE19=Frank Stokes - I'm Going Away Blues
TTITLE20=Frank Stokes - Old Sometime Blues
TTITLE21=Frank Stokes - Frank Stokes' Dream
TTITLE22=Frank Stokes - Memphis Rounders Blues
TTITLE23=Allen Shaw - I Couldn't Help It
TTITLE24=Allen Shaw - Moanin' The Blues
EXTD=YEAR: 2004
EXTT0=
EXTT1=
EXTT2=
EXTT3=
EXTT4=
EXTT5=
EXTT6=
EXTT7=
EXTT8=
EXTT9=
EXTT10=
EXTT11=
EXTT12=
EXTT13=
EXTT14=
EXTT15=
EXTT16=
EXTT17=
EXTT18=
EXTT19=
EXTT20=
EXTT21=
EXTT22=
EXTT23=
EXTT24=
PLAYORDER=
